# xmcd CD database file
#
# Track frame offsets:
#	150
#	17823
#	37811
#	53432
#	69500
#	86288
#	102407
#	119921
#	139720
#	156724
#	174154
#	190650
#	214961
#	236713
#	257904
#	275697
#	291939
#
# Disc length: 4088 seconds
#
# Revision: 0
# Processed by: cddbd v1.5.2PL0 Copyright (c) Steve Scherf et al.
# Submitted via: CDex 1.70beta2
#
DISCID=fb0ff611
DTITLE=Leann Rimes - family - YZCD-10101
DYEAR=2007
DGENRE=Country
TTITLE0=Family
TTITLE1=Nothin' Better to Do
TTITLE2=Fight
TTITLE3=Good Friend and a Glass of Wine
TTITLE4=Something I Can Feel
TTITLE5=I Want You with Me
TTITLE6=Doesn't Everybody
TTITLE7=Nothing Wrong
TTITLE8=Pretty Things
TTITLE9=Upper Hand
TTITLE10=One Day Too Long
TTITLE11=What I Can Not Change
TTITLE12=Till We Ain't Strangers Anymore (Duet with Bon Jovi)
TTITLE13=When You Love Someone Like That (Duet with Reba McEntire
TTITLE14=How Do I Live [Mr. Mig Remix Dance Radio Edit]
TTITLE15=Can't Fight the Moonlight [Graham Stack Radio Edit]
TTITLE16=Nothin' Better to Do [Soul Seekerz Radio Edit]
EXTD=YEAR: 2007
EXTT0=
EXTT1=
EXTT2=
EXTT3=
EXTT4=
EXTT5=
EXTT6=
EXTT7=
EXTT8=
EXTT9=
EXTT10=
EXTT11=
EXTT12=
EXTT13=
EXTT14=
EXTT15=
EXTT16=
PLAYORDER=
